HIERARCHY
ROOT Hips
{
	OFFSET 0.00000 0.00000 0.00000
	CHANNELS 6 Xposition Yposition Zposition Zrotation Yrotation Xrotation 
	JOINT LHipJoint
	{
		OFFSET 0 0 0
		CHANNELS 3 Zrotation Yrotation Xrotation
		JOINT LeftUpLeg
		{
			OFFSET 1.41496 -1.84582 0.78394
			CHANNELS 3 Zrotation Yrotation Xrotation
			JOINT LeftLeg
			{
				OFFSET 2.58040 -7.08960 0.00000
				CHANNELS 3 Zrotation Yrotation Xrotation
				JOINT LeftFoot
				{
					OFFSET 2.64719 -7.27309 0.00000
					CHANNELS 3 Zrotation Yrotation Xrotation
					JOINT LeftToeBase
					{
						OFFSET 0.20718 -0.56921 2.20259
						CHANNELS 3 Zrotation Yrotation Xrotation
						End Site
						{
							OFFSET 0.00000 -0.00000 1.14243
						}
					}
				}
			}
		}
	}
	JOINT RHipJoint
	{
		OFFSET 0 0 0
		CHANNELS 3 Zrotation Yrotation Xrotation
		JOINT RightUpLeg
		{
			OFFSET -1.40551 -1.84582 0.78394
			CHANNELS 3 Zrotation Yrotation Xrotation
			JOINT RightLeg
			{
				OFFSET -2.56572 -7.04926 0.00000
				CHANNELS 3 Zrotation Yrotation Xrotation
				JOINT RightFoot
				{
					OFFSET -2.57974 -7.08778 0.00000
					CHANNELS 3 Zrotation Yrotation Xrotation
					JOINT RightToeBase
					{
						OFFSET -0.26704 -0.73369 2.20815
						CHANNELS 3 Zrotation Yrotation Xrotation
						End Site
						{
							OFFSET -0.00000 -0.00000 1.16246
						}
					}
				}
			}
		}
	}
	JOINT LowerBack
	{
		OFFSET 0 0 0
		CHANNELS 3 Zrotation Yrotation Xrotation
		JOINT Spine
		{
			OFFSET -0.04690 2.05196 -0.07017
			CHANNELS 3 Zrotation Yrotation Xrotation
			JOINT Spine1
			{
				OFFSET 0.04085 2.05260 0.00800
				CHANNELS 3 Zrotation Yrotation Xrotation
				JOINT Neck
				{
					OFFSET 0 0 0
					CHANNELS 3 Zrotation Yrotation Xrotation
					JOINT Neck1
					{
						OFFSET -0.03582 1.80995 0.19301
						CHANNELS 3 Zrotation Yrotation Xrotation
						JOINT Head
						{
							OFFSET 0.00952 1.80195 -0.36389
							CHANNELS 3 Zrotation Yrotation Xrotation
							End Site
							{
								OFFSET 0.00392 1.85062 -0.14494
							}
						}
					}
				}
				JOINT LeftShoulder
				{
					OFFSET 0 0 0
					CHANNELS 3 Zrotation Yrotation Xrotation
					JOINT LeftArm
					{
						OFFSET 3.55224 1.39726 -0.13667
						CHANNELS 3 Zrotation Yrotation Xrotation
						JOINT LeftForeArm
						{
							OFFSET 5.14507 -0.00000 -0.00000
							CHANNELS 3 Zrotation Yrotation Xrotation
							JOINT LeftHand
							{
								OFFSET 3.50646 -0.00000 0.00000
								CHANNELS 3 Zrotation Yrotation Xrotation
								JOINT LeftFingerBase
								{
									OFFSET 0 0 0
									CHANNELS 3 Zrotation Yrotation Xrotation
									JOINT LeftHandIndex1
									{
										OFFSET 0.62997 -0.00000 0.00000
										CHANNELS 3 Zrotation Yrotation Xrotation
										End Site
										{
											OFFSET 0.50790 -0.00000 0.00000
										}
									}
								}
								JOINT LThumb
								{
									OFFSET 0 0 0
									CHANNELS 3 Zrotation Yrotation Xrotation
									End Site
									{
										OFFSET 0.51565 -0.00000 0.51565
									}
								}
							}
						}
					}
				}
				JOINT RightShoulder
				{
					OFFSET 0 0 0
					CHANNELS 3 Zrotation Yrotation Xrotation
					JOINT RightArm
					{
						OFFSET -3.06467 1.61290 -0.28813
						CHANNELS 3 Zrotation Yrotation Xrotation
						JOINT RightForeArm
						{
							OFFSET -5.23200 -0.00000 -0.00000
							CHANNELS 3 Zrotation Yrotation Xrotation
							JOINT RightHand
							{
								OFFSET -3.65641 -0.00000 0.00000
								CHANNELS 3 Zrotation Yrotation Xrotation
								JOINT RightFingerBase
								{
									OFFSET 0 0 0
									CHANNELS 3 Zrotation Yrotation Xrotation
									JOINT RightHandIndex1
									{
										OFFSET -0.65681 -0.00000 0.00000
										CHANNELS 3 Zrotation Yrotation Xrotation
										End Site
										{
											OFFSET -0.52953 -0.00000 0.00000
										}
									}
								}
								JOINT RThumb
								{
									OFFSET 0 0 0
									CHANNELS 3 Zrotation Yrotation Xrotation
									End Site
									{
										OFFSET -0.53762 -0.00000 0.53762
									}
								}
							}
						}
					}
				}
			}
		}
	}
}
MOTION
Frames: 7
Frame Time: .0083333
-0.4007 15.6767 41.7722 0 0 0 0 0 0 -21 0 0 0 0 0 0 0 0 0 0 0 0 0 0 21 0 0 0 0 0 0 0 0 0 0 0 0 0 0 0 0 0 0 0 0 0 0 -16 0 0 21 0 0 11 0 0 0 -8 0 0 0 0 0 0 0 0 0 0 0 0 0 0 0 0 0 0 0 0 8 0 0 0 0 0 0 0 0 0 0 0 0 0 0 0 0 0
-0.4007 15.6767 41.7722 -174.8310 -0.7259 -156.7370 0.0000 0.0000 0.0000 -5.2469 -12.9234 -75.7486 12.7625 18.6947 68.3862 -0.2444 -16.5581 -8.9945 3.5848 -11.5864 -34.2841 0.0000 0.0000 0.0000 26.9209 2.4139 6.0876 -2.8948 -10.5228 30.6868 -2.0476 -10.0965 25.7051 -1.2314 7.0376 -19.8267 8.1575 0.0902 16.5861 3.0316 2.3379 0.0210 -1.9121 0.9722 -9.1574 -1.0941 -1.8230 -16.6960 0.5267 -3.0345 -3.5427 0.1510 -1.8328 1.7270 0.0000 0.0000 0.0000 -73.6605 47.4395 50.2737 96.3118 -59.8489 -65.4634 -0.0000 0.0000 -14.5590 24.4396 -11.4770 -5.1669 -7.1250 0.0000 -0.0000 -1.8928 17.4119 1.2404 0.0000 0.0000 0.0000 79.6811 2.8670 37.6932 -116.9226 57.0757 -83.0867 0.0000 -0.0000 -1.3946 -28.7659 4.3488 -2.3838 7.1250 -0.0000 -0.0000 -1.5903 -25.0215 -0.7687
-0.3816 15.6786 41.2758 -174.6630 -0.4704 -156.5610 0.0000 0.0000 0.0000 -5.9093 -12.2452 -74.3342 12.6585 18.6554 68.0614 -0.2857 -16.3987 -8.3530 2.2817 -9.4298 -27.1492 0.0000 0.0000 0.0000 26.7835 2.3590 2.7014 -4.1875 -12.4059 37.1833 -1.2029 -9.1149 19.6913 -3.8247 11.9235 -35.4618 7.7965 0.1620 16.3511 3.1240 2.3438 -0.0255 -1.6061 0.9931 -9.0909 -1.0138 -1.6800 -16.7026 0.6357 -2.8800 -3.6845 0.1831 -1.7611 1.6798 0.0000 0.0000 0.0000 -75.8065 44.3091 49.6076 96.5406 -59.8377 -65.6613 -0.0000 0.0000 -15.3402 24.6063 -11.5046 -5.2189 -7.1250 0.0000 -0.0000 -1.7778 17.3651 1.1667 0.0000 0.0000 0.0000 80.7956 1.1932 38.2263 -111.3523 58.2052 -78.3802 0.0000 -0.0000 -1.3165 -28.3003 3.9468 -2.1225 7.1250 -0.0000 -0.0000 -1.2576 -25.4991 -0.5938
-0.3674 15.7190 40.7463 -174.8130 -0.5602 -156.8610 0.0000 0.0000 0.0000 -7.0839 -11.8666 -71.7981 12.5475 18.6126 67.7141 -0.2441 -16.2507 -8.7202 0.7243 -5.4380 -15.1621 0.0000 0.0000 0.0000 26.4171 2.0468 -0.5463 -5.6931 -14.1242 43.7372 -0.9251 -7.9988 17.2404 -3.9822 12.1366 -36.2171 7.4401 0.0124 16.3999 3.1644 2.0812 -0.0081 -1.3022 0.8820 -9.1321 -0.7668 -1.5089 -16.6139 0.5824 -2.7040 -3.7640 0.1366 -1.6801 1.6318 0.0000 -0.0000 0.0000 -77.7141 41.0239 49.2635 96.6313 -59.8332 -65.7397 -0.0000 0.0000 -15.7746 24.5117 -11.1015 -5.0175 -7.1250 0.0000 -0.0000 -1.8227 17.8137 1.1783 0.0000 -0.0000 0.0000 82.0194 -0.5569 38.4267 -104.6925 59.1684 -72.6885 0.0000 -0.0000 -1.1215 -27.6692 3.6639 -1.9191 7.1250 -0.0000 -0.0000 -0.7913 -25.8442 -0.3672
-0.3559 15.7308 40.2201 -175.0600 -0.6397 -157.3250 0.0000 0.0000 0.0000 -8.4679 -11.4364 -68.6507 12.4658 18.5807 67.4578 -0.0636 -16.3870 -10.8569 0.1921 -2.8226 -7.7853 0.0000 0.0000 0.0000 26.0165 1.8695 -3.5569 -7.2370 -15.5283 49.7651 -0.6747 -8.3301 14.8928 -2.5634 9.9524 -28.8226 7.0784 -0.1285 16.6120 3.1368 1.8351 0.0674 -1.0742 0.7778 -9.1943 -0.2072 -2.3728 -16.6638 0.6127 -2.3153 -3.8146 0.0947 -0.7832 1.6156 -0.0000 -0.0000 0.0000 -79.2502 37.3209 49.3054 96.3425 -59.8474 -65.4900 -0.0000 0.0000 -15.8454 24.4679 -11.4914 -5.1800 -7.1250 0.0000 -0.0000 -1.8738 17.3934 1.2287 -0.0000 -0.0000 0.0000 83.3674 -2.1809 38.0070 -97.6541 59.7775 -66.6237 0.0000 -0.0000 -1.2642 -27.1277 2.8764 -1.4728 7.1250 -0.0000 -0.0000 -0.4020 -26.7485 -0.1780
-0.3611 15.8006 39.6743 -175.9000 -0.6524 -157.9050 0.0000 0.0000 0.0000 -10.1950 -11.4771 -64.6643 12.3371 18.5296 67.0535 0.2329 -17.3265 -14.3024 0.0798 -1.8222 -5.0145 0.0000 0.0000 0.0000 24.7612 1.7456 -7.4254 -8.8849 -16.7330 55.6911 -0.5645 -7.6889 13.6246 -2.5169 9.8686 -28.5522 6.4771 -0.4217 16.8054 2.8543 1.2849 0.1061 -0.9106 0.5189 -9.2973 0.1003 -2.1147 -16.3714 0.6098 -2.0518 -3.8189 0.0595 -0.6660 1.5584 -0.0000 -0.0000 0.0000 -80.8378 33.2463 49.4170 94.8421 -59.9112 -64.1922 -0.0000 0.0000 -13.9954 25.4997 -11.4680 -5.4172 -7.1250 0.0000 -0.0000 -1.1515 17.3138 0.7568 -0.0000 -0.0000 0.0000 84.8890 -3.7026 37.2638 -88.6944 59.9936 -58.8693 0.0000 -0.0000 -1.1651 -28.0476 2.7846 -1.4827 7.1250 -0.0000 -0.0000 -1.1070 -26.8249 -0.4884
-0.3572 15.8129 39.1533 -176.6740 -0.6121 -158.3410 0.0000 0.0000 0.0000 -11.8873 -11.3112 -61.3813 12.1715 18.4622 66.5313 0.5052 -17.4005 -16.5902 0.0000 0.0400 0.1098 0.0000 0.0000 0.0000 23.5802 1.6268 -10.8131 -10.6113 -17.7395 61.5125 -0.3592 -7.5851 11.1638 -2.4449 9.7371 -28.1294 5.7176 -0.6135 17.0002 2.6378 0.8484 0.1240 -0.6101 0.3255 -9.4150 0.3185 -1.9222 -16.2648 0.6681 -1.8450 -3.8227 0.0540 -0.5677 1.5362 0.0000 0.0000 0.0000 -82.1759 29.3891 49.6498 94.1958 -59.9334 -63.6328 -0.0000 0.0000 -13.3394 25.8164 -11.5186 -5.5178 -7.1250 0.0000 -0.0000 -0.9334 17.2249 0.6152 0.0000 0.0000 0.0000 86.2316 -5.2854 36.3462 -81.0906 59.6979 -52.2920 0.0000 -0.0000 -1.5733 -27.9967 2.5144 -1.3361 7.1250 -0.0000 -0.0000 -1.0761 -27.1323 -0.4670
